<svg width="287" height="98" xmlns="http://www.w3.org/2000/svg" xmlns:xlink="http://www.w3.org/1999/xlink" xml:space="preserve" overflow="hidden"><defs><filter id="fx0" x="-10%" y="-10%" width="120%" height="120%" filterUnits="userSpaceOnUse" primitiveUnits="userSpaceOnUse"><feComponentTransfer color-interpolation-filters="sRGB"><feFuncR type="discrete" tableValues="0 0"/><feFuncG type="discrete" tableValues="0 0"/><feFuncB type="discrete" tableValues="0 0"/><feFuncA type="linear" slope="0.4" intercept="0"/></feComponentTransfer><feGaussianBlur stdDeviation="2.22222 2.22222"/></filter><clipPath id="clip1"><rect x="985" y="13" width="287" height="98"/></clipPath><clipPath id="clip2"><rect x="-2" y="-2" width="294" height="104"/></clipPath><clipPath id="clip3"><rect x="0" y="0" width="289" height="100"/></clipPath><clipPath id="clip4"><rect x="8" y="8" width="273" height="84"/></clipPath><clipPath id="clip5"><rect x="8" y="8" width="273" height="84"/></clipPath><clipPath id="clip6"><rect x="8" y="8" width="273" height="84"/></clipPath><clipPath id="clip7"><rect x="995" y="21" width="267" height="82"/></clipPath><clipPath id="clip8"><rect x="995" y="21" width="267" height="82"/></clipPath><clipPath id="clip9"><rect x="995" y="21" width="267" height="82"/></clipPath></defs><g clip-path="url(#clip1)" transform="translate(-985 -13)"><g clip-path="url(#clip2)" filter="url(#fx0)" transform="translate(984 12)"><g clip-path="url(#clip3)"><g clip-path="url(#clip4)"><g clip-path="url(#clip5)"><g clip-path="url(#clip6)"><path d="M41.8195 0C64.9162 0 83.64 18.7236 83.64 41.82 83.64 64.9164 64.9162 83.64 41.8195 83.64 18.7235 83.64 0 64.9164 0 41.82 0 18.7236 18.7235 0 41.8195 0Z" fill="#D92128" fill-rule="evenodd" transform="matrix(1.00249 0 0 1 8.35315 8.18)"/><path d="M55.7599 13.0662C62.4704 13.0662 67.9107 18.5064 67.9107 25.217 67.9107 31.9276 62.4704 37.3675 55.7599 37.3675 49.049 37.3675 43.6094 31.9276 43.6094 25.217 43.6094 18.5064 49.049 13.0662 55.7599 13.0662" fill="#FFFFFF" fill-rule="evenodd" transform="matrix(1.00249 0 0 1 8.35315 8.18)"/><path d="M120.031 64.309C120.031 59.7014 116.976 56.4463 110.718 55.144 104.309 53.7919 102.707 52.54 102.707 50.4866 102.707 47.8322 104.66 46.0793 109.967 46.0793 113.722 46.0793 116.776 47.1812 118.879 49.4348L119.08 49.4348 119.08 46.28C119.08 43.4254 116.776 40.0196 108.765 40.0196 100.704 40.0196 95.8971 45.4284 95.8971 51.1375 95.8971 55.7952 99.2016 58.6999 105.01 59.9516 112.27 61.5043 113.171 62.556 113.171 64.9098 113.171 67.6643 111.519 69.417 106.362 69.417 102.206 69.417 99.102 67.7645 96.7984 65.7111L96.6485 65.7111 96.6485 68.7661C96.6485 72.8223 100.203 75.5268 107.113 75.5268 115.425 75.5268 120.031 71.0696 120.031 64.309ZM124.545 48.9839 124.545 65.2104C124.545 71.5202 127.85 75.2267 134.66 75.2267 138.565 75.2267 140.568 73.4736 140.568 70.7191L140.568 68.3151 140.317 68.3151C139.266 68.9662 137.614 69.2671 135.461 69.2671 132.757 69.2671 131.204 67.9148 131.204 64.4088L131.204 53.8419 136.562 53.8419C139.315 53.8419 140.568 52.0393 140.568 50.6365L140.568 47.8822 131.204 47.8822 131.204 41.7725 129.652 41.7725C128.601 41.7725 127.399 42.5734 126.498 43.6253 125.046 45.328 124.545 46.3299 124.545 48.9839ZM166.111 57.7484C166.111 51.2879 160.904 47.2815 155.296 47.2815 147.585 47.2815 142.078 52.9408 142.078 61.955 142.078 70.2183 148.637 75.5268 155.346 75.5268 162.757 75.5268 165.11 72.8725 165.11 69.417L165.11 67.3136 164.859 67.3136C162.706 69.317 159.402 69.868 156.598 69.868 152.642 69.868 149.538 67.7144 149.037 64.309L153.443 64.309C162.356 64.309 166.111 62.7064 166.111 57.7484ZM159.802 56.9468C159.802 58.8498 158.35 59.5512 151.991 59.5512L148.988 59.5512 149.037 58.6499C149.188 55.5447 151.44 52.8908 154.695 52.8908 157.799 52.8908 159.802 54.2424 159.802 56.9468ZM185.597 54.4429 185.597 52.0393C185.597 49.9859 184.144 47.632 179.988 47.632 172.879 47.632 170.025 52.7901 170.025 58.1992L170.025 70.6189C170.025 73.4234 171.927 74.926 174.931 74.926L176.785 74.926 176.785 59.401C176.785 55.2944 178.436 53.6413 181.44 53.6413 183.193 53.6413 184.344 54.0426 185.346 54.4429L185.597 54.4429ZM201.427 71.1198 201.427 69.6676 199.625 69.6676C196.47 69.6676 195.069 68.8161 195.069 66.1117L195.069 43.375C195.069 40.8208 193.617 38.8675 190.261 38.8675L188.359 38.8675 188.359 66.7631C188.359 72.2216 191.363 75.1766 196.92 75.1766 199.875 75.1766 201.427 74.0247 201.427 71.1198ZM211.3 42.0227C211.3 39.8695 209.496 38.1166 207.344 38.1166 205.191 38.1166 203.438 39.8695 203.438 42.0227 203.438 44.1763 205.191 45.9793 207.344 45.9793 209.496 45.9793 211.3 44.1763 211.3 42.0227ZM216.106 71.1198 216.106 69.6676 214.854 69.6676C211.9 69.6676 210.748 68.8161 210.748 66.1117L210.748 53.4911C210.748 50.0861 208.946 48.4833 205.942 48.4833L204.038 48.4833C204.038 48.4833 204.038 65.2104 204.038 66.7631 204.038 72.2216 206.892 75.1766 212.101 75.1766 214.955 75.1766 216.106 74.0247 216.106 71.1198ZM242.4 74.926 242.4 59.2006C242.4 51.538 237.145 47.2815 230.785 47.2815 222.372 47.2815 218.617 53.1408 218.617 58.8498L218.617 70.5189C218.617 73.0229 220.47 74.926 223.324 74.926L225.328 74.926 225.328 59.3006C225.328 55.4446 227.33 53.241 230.234 53.241 233.688 53.241 235.691 55.2444 235.691 59.8018L235.691 70.5189C235.691 73.0229 237.593 74.926 240.599 74.926L242.4 74.926ZM271.3 63.7078 271.3 59.1005C271.3 52.1894 266.994 47.2815 260.284 47.2815 251.572 47.2815 246.566 53.4413 246.566 61.0539 246.566 67.4137 251.221 71.9715 257.78 71.9715 261.636 71.9715 264.19 69.9182 264.739 67.9649L264.739 68.6157C264.739 68.8663 264.791 69.5671 264.791 69.9682 264.839 70.4189 264.839 70.9695 264.839 71.3703 264.839 75.2765 262.638 77.5803 257.78 77.5803 253.924 77.5803 250.82 76.3784 249.219 74.6753L248.918 74.6753 248.918 77.7307C248.918 80.9359 252.723 83.64 258.282 83.64 266.994 83.64 271.499 77.5803 271.499 70.8195 271.499 69.9182 271.449 68.4655 271.4 67.3637 271.348 66.1619 271.3 64.6096 271.3 63.7078ZM259.533 53.241C262.487 53.241 264.59 55.2944 264.59 59.5012 264.59 63.808 262.186 66.3118 258.831 66.3118 255.627 66.3118 253.474 63.7078 253.474 60.2021 253.474 56.1459 256.077 53.241 259.533 53.241L259.533 53.241Z" fill="#FFFFFF" fill-rule="evenodd" transform="matrix(1.00249 0 0 1 8.33002 8.18)"/></g></g></g></g></g><g clip-path="url(#clip7)"><g clip-path="url(#clip8)"><g clip-path="url(#clip9)"><path d="M40.9995 0C63.6433 0 82 18.3565 82 41 82 63.6435 63.6433 82 40.9995 82 18.3564 82 0 63.6435 0 41 0 18.3565 18.3564 0 40.9995 0Z" fill="#D92128" fill-rule="evenodd" transform="matrix(1.00249 0 0 1 995.023 21)"/><path d="M54.6666 12.81C61.2455 12.81 66.5791 18.1435 66.5791 24.7225 66.5791 31.3015 61.2455 36.6348 54.6666 36.6348 48.0873 36.6348 42.7543 31.3015 42.7543 24.7225 42.7543 18.1435 48.0873 12.81 54.6666 12.81" fill="#FFFFFF" fill-rule="evenodd" transform="matrix(1.00249 0 0 1 995.023 21)"/><path d="M117.677 63.048C117.677 58.5308 114.683 55.3395 108.547 54.0628 102.264 52.7372 100.693 51.5098 100.693 49.4967 100.693 46.8943 102.608 45.1758 107.811 45.1758 111.492 45.1758 114.486 46.256 116.548 48.4654L116.745 48.4654 116.745 45.3726C116.745 42.5739 114.486 39.2349 106.632 39.2349 98.7292 39.2349 94.0168 44.5376 94.0168 50.1348 94.0168 54.7012 97.2564 57.5489 102.951 58.7761 110.069 60.2984 110.952 61.3294 110.952 63.6371 110.952 66.3375 109.333 68.0559 104.276 68.0559 100.202 68.0559 97.1589 66.4357 94.9004 64.4226L94.7535 64.4226 94.7535 67.4178C94.7535 71.3944 98.2385 74.0458 105.012 74.0458 113.161 74.0458 117.677 69.6761 117.677 63.048ZM122.103 48.0235 122.103 63.9318C122.103 70.1179 125.343 73.7516 132.019 73.7516 135.848 73.7516 137.812 72.0329 137.812 69.3325L137.812 66.9756 137.566 66.9756C136.535 67.6139 134.915 67.909 132.805 67.909 130.154 67.909 128.632 66.5832 128.632 63.1459L128.632 52.7862 133.884 52.7862C136.584 52.7862 137.812 51.0189 137.812 49.6436L137.812 46.9434 128.632 46.9434 128.632 40.9534 127.11 40.9534C126.079 40.9534 124.901 41.7387 124.017 42.7699 122.594 44.4392 122.103 45.4214 122.103 48.0235ZM162.854 56.6161C162.854 50.2822 157.749 46.3544 152.251 46.3544 144.691 46.3544 139.292 51.9027 139.292 60.7402 139.292 68.8415 145.723 74.0458 152.3 74.0458 159.566 74.0458 161.873 71.4436 161.873 68.0559L161.873 65.9938 161.627 65.9938C159.516 67.9578 156.276 68.498 153.527 68.498 149.649 68.498 146.605 66.3867 146.115 63.048L150.434 63.048C159.172 63.048 162.854 61.4769 162.854 56.6161ZM156.669 55.8302C156.669 57.6959 155.246 58.3835 149.011 58.3835L146.066 58.3835 146.115 57.4999C146.263 54.4555 148.471 51.8537 151.662 51.8537 154.705 51.8537 156.669 53.1788 156.669 55.8302ZM181.958 53.3754 181.958 51.0189C181.958 49.0058 180.533 46.698 176.459 46.698 169.489 46.698 166.691 51.755 166.691 57.0581L166.691 69.2342C166.691 71.9837 168.556 73.4569 171.501 73.4569L173.318 73.4569 173.318 58.2362C173.318 54.2102 174.937 52.5896 177.883 52.5896 179.601 52.5896 180.73 52.983 181.712 53.3754L181.958 53.3754ZM197.477 69.7253 197.477 68.3016 195.711 68.3016C192.618 68.3016 191.244 67.4668 191.244 64.8154L191.244 42.5245C191.244 40.0204 189.82 38.1054 186.53 38.1054L184.666 38.1054 184.666 65.454C184.666 70.8055 187.611 73.7026 193.059 73.7026 195.955 73.7026 197.477 72.5733 197.477 69.7253ZM207.157 41.1988C207.157 39.0878 205.389 37.3692 203.278 37.3692 201.167 37.3692 199.449 39.0878 199.449 41.1988 199.449 43.3101 201.167 45.0777 203.278 45.0777 205.389 45.0777 207.157 43.3101 207.157 41.1988ZM211.868 69.7253 211.868 68.3016 210.642 68.3016C207.745 68.3016 206.615 67.4668 206.615 64.8154L206.615 52.4423C206.615 49.1041 204.849 47.5326 201.904 47.5326L200.037 47.5326C200.037 47.5326 200.037 63.9318 200.037 65.454 200.037 70.8055 202.835 73.7026 207.942 73.7026 210.74 73.7026 211.868 72.5733 211.868 69.7253ZM237.647 73.4569 237.647 58.0398C237.647 50.5274 232.495 46.3544 226.259 46.3544 218.012 46.3544 214.33 52.0989 214.33 57.6959L214.33 69.1362C214.33 71.5911 216.147 73.4569 218.945 73.4569L220.91 73.4569 220.91 58.1378C220.91 54.3575 222.873 52.1971 225.72 52.1971 229.106 52.1971 231.069 54.1612 231.069 58.6292L231.069 69.1362C231.069 71.5911 232.934 73.4569 235.881 73.4569L237.647 73.4569ZM265.98 62.4586 265.98 57.9417C265.98 51.166 261.759 46.3544 255.181 46.3544 246.64 46.3544 241.731 52.3934 241.731 59.8567 241.731 66.0918 246.295 70.5603 252.726 70.5603 256.506 70.5603 259.01 68.5472 259.548 66.6322L259.548 67.2703C259.548 67.516 259.599 68.203 259.599 68.5963 259.646 69.0381 259.646 69.578 259.646 69.9709 259.646 73.8005 257.488 76.0591 252.726 76.0591 248.945 76.0591 245.902 74.8808 244.332 73.2111L244.037 73.2111 244.037 76.2065C244.037 79.3489 247.768 82 253.218 82 261.759 82 266.175 76.0591 266.175 69.4309 266.175 68.5472 266.126 67.1231 266.079 66.0428 266.028 64.8646 265.98 63.3427 265.98 62.4586ZM254.444 52.1971C257.341 52.1971 259.402 54.2102 259.402 58.3345 259.402 62.5568 257.045 65.0116 253.756 65.0116 250.615 65.0116 248.504 62.4586 248.504 59.0216 248.504 55.045 251.056 52.1971 254.444 52.1971L254.444 52.1971Z" fill="#FFFFFF" fill-rule="evenodd" transform="matrix(1.00249 0 0 1 995 21)"/></g></g></g></g></svg>